<?xml version="1.0" encoding="UTF-8" ?>
<!DOCTYPE svg PUBLIC "-//W3C//DTD SVG 1.1//EN" "http://www.w3.org/Graphics/SVG/1.1/DTD/svg11.dtd">
<svg width="250pt" height="250pt" viewBox="0 0 250 250" version="1.1" xmlns="http://www.w3.org/2000/svg">
<path fill="#ffffff" d=" M 0.00 0.00 L 250.00 0.00 L 250.00 250.00 L 0.00 250.00 L 0.00 0.00 Z" />
<path fill="#77b141" d=" M 116.37 16.74 C 124.86 14.85 134.24 15.60 141.82 20.11 C 163.16 32.45 184.50 44.79 205.87 57.08 C 216.10 62.40 223.03 73.40 223.96 84.82 C 224.07 110.19 223.94 135.56 224.02 160.94 C 224.60 172.58 218.48 184.32 208.85 190.82 C 187.12 203.46 165.29 215.94 143.55 228.58 C 133.62 235.02 120.17 235.59 109.59 230.45 C 87.76 217.97 66.05 205.30 44.24 192.79 C 32.70 186.92 25.20 173.92 25.72 161.00 C 25.77 137.02 25.76 113.03 25.73 89.04 C 25.11 77.06 31.41 64.89 41.54 58.48 C 61.79 46.76 82.07 35.08 102.33 23.37 C 106.82 20.81 111.21 17.78 116.37 16.74 Z" />
<path fill="#ffffff" d=" M 59.66 94.65 C 68.33 74.36 89.67 60.41 111.74 60.69 C 111.75 63.34 111.75 66.00 111.77 68.66 C 98.72 68.86 85.73 74.07 76.65 83.54 C 67.55 92.88 62.38 105.97 62.97 119.03 C 63.08 139.08 77.26 157.91 96.31 163.93 C 104.05 166.75 112.39 166.32 120.49 166.36 C 120.49 164.72 120.49 163.07 120.49 161.43 C 114.68 161.25 108.79 162.04 103.06 160.74 C 89.82 158.12 78.03 149.07 72.18 136.90 C 65.44 123.60 66.38 106.87 74.38 94.32 C 82.19 81.53 96.81 73.60 111.73 73.42 C 111.75 76.10 111.75 78.77 111.75 81.45 C 99.65 81.68 87.83 88.03 81.39 98.35 C 74.07 109.48 73.94 124.69 80.92 136.01 C 86.26 145.00 95.69 151.43 106.02 153.06 C 110.72 153.80 115.50 153.52 120.25 153.57 C 120.26 122.63 120.24 91.69 120.25 60.75 C 126.83 60.76 133.41 60.73 139.99 60.75 C 156.06 60.94 171.58 69.00 181.67 81.38 C 191.21 92.89 196.05 108.18 194.67 123.09 C 193.36 139.57 184.22 155.21 170.54 164.49 C 161.92 170.57 151.52 173.88 141.00 174.32 C 140.96 181.93 141.07 189.54 140.97 197.15 C 140.99 202.45 136.21 207.05 130.95 207.03 C 125.45 207.46 120.19 202.71 120.26 197.16 C 120.20 189.58 120.28 182.00 120.25 174.42 C 114.80 174.41 109.33 174.70 103.92 173.90 C 87.39 171.74 72.13 161.78 63.42 147.57 C 53.53 131.99 52.21 111.48 59.66 94.65 Z" />
<path fill="#77b141" d=" M 128.26 68.75 C 135.65 68.79 143.20 68.29 150.40 70.34 C 164.50 73.93 176.40 84.48 182.33 97.67 C 188.73 111.52 188.23 128.40 180.70 141.70 C 172.83 156.05 157.34 165.46 141.08 166.54 C 140.93 164.89 140.79 163.23 140.66 161.58 C 151.26 160.94 161.55 156.57 169.09 149.05 C 177.52 140.68 182.41 128.80 182.00 116.90 C 181.55 100.43 171.33 84.60 156.35 77.65 C 149.14 74.04 140.96 73.21 133.01 73.50 C 132.99 115.75 133.01 158.00 132.99 200.25 C 131.41 200.24 129.84 200.25 128.26 200.25 C 128.25 156.42 128.25 112.59 128.26 68.75 Z" />
<path fill="#77b141" d=" M 141.02 81.61 C 161.10 82.91 176.82 103.43 173.65 123.13 C 171.59 139.30 157.15 152.41 141.01 153.62 C 141.01 129.62 140.98 105.62 141.02 81.61 Z" />
</svg>
